<svg width="100" height="100" viewBox="0 0 100 100" fill="none" xmlns="http://www.w3.org/2000/svg">
<rect x="0.5" y="0.5" width="99" height="99" rx="10.5" fill="#F5F5FF"/>
<rect x="0.5" y="0.5" width="99" height="99" rx="10.5" fill="url(#paint0_linear_427_146)" fill-opacity="0.1"/>
<rect x="0.5" y="0.5" width="99" height="99" rx="10.5" stroke="#DFDFED"/>
<g filter="url(#filter0_i_427_146)">
<path d="M12.825 41.7599C12.8271 45.0895 13.7975 47.4635 15.7362 48.8818C17.6749 50.3002 20.3824 50.8779 23.8588 50.6149C27.3517 50.3507 30.0257 49.2743 31.8808 47.3859C33.7523 45.4962 34.6821 42.8203 34.6699 39.3582C34.6625 36.1788 33.9201 33.7376 32.4427 32.0346C30.9818 30.3304 28.8172 28.8958 25.9487 27.731C23.9736 26.9314 22.6331 26.1587 21.9274 25.4129C21.2217 24.6672 20.8726 23.7945 20.8803 22.795C20.8538 21.565 21.0517 20.6593 21.4739 20.0779C21.8948 19.48 22.6433 19.1404 23.7193 19.059C24.7623 18.9801 25.5081 19.265 25.9567 19.9136C26.4206 20.5445 26.6882 21.44 26.7593 22.6L26.7891 24.6456L33.9654 24.1027L33.9533 21.6313C33.9569 18.8173 33.0524 16.6548 31.2399 15.1436C29.4427 13.6147 26.8969 12.9748 23.6026 13.224C20.2752 13.4757 17.6809 14.5044 15.8196 16.3101C13.957 18.0993 13.0498 20.6319 13.0978 23.9082C13.1061 26.4382 13.8247 28.5648 15.2537 30.2881C16.698 31.9936 18.8817 33.46 21.8049 34.6874C24.0077 35.6362 25.4136 36.5038 26.0225 37.2902C26.6301 38.0601 26.9369 39.144 26.9428 40.5421C26.9524 41.9898 26.7008 43.0661 26.1881 43.7708C25.674 44.459 24.8625 44.845 23.7533 44.9289C22.5945 45.0166 21.7329 44.7405 21.1684 44.1006C20.6038 43.4607 20.3155 42.4003 20.3034 40.9194L20.3006 38.5721L12.8015 39.1394L12.825 41.7599Z" fill="#696BA7"/>
<path d="M35.1638 12.8739L43.2221 48.7506L52.3849 48.0575L59.9207 11.0012L52.372 11.5722L48.45 36.3179C48.3783 36.6896 48.3013 37.1033 48.2193 37.5591C48.1538 38.0135 48.0997 38.5088 48.057 39.0448L47.9328 39.0542C47.8431 38.5282 47.7571 38.0519 47.6749 37.6252C47.6079 37.1808 47.527 36.7707 47.432 36.3949L43.1595 12.2691L35.1638 12.8739Z" fill="#696BA7"/>
<path d="M61.0045 32.9208C61.0222 37.9974 62.0916 41.6792 64.2125 43.9662C66.35 46.2519 69.339 47.2495 73.1796 46.9589C75.9938 46.7461 78.307 46.0716 80.119 44.9356C81.9464 43.7818 83.3071 42.6216 84.2011 41.4552L84.1174 26.1528L72.8688 27.0037L72.8655 32.573L76.4909 32.2988L76.5657 39.5604C76.1882 40.0718 75.7344 40.4557 75.2044 40.7122C74.6909 40.9675 74.0452 41.1246 73.2671 41.1834C71.8766 41.2886 70.8375 40.8678 70.1498 39.9208C69.4609 38.9574 69.104 37.3195 69.0789 35.0072L69.0397 22.2736C69.0121 19.9282 69.3001 18.2332 69.9037 17.1886C70.5073 16.144 71.4299 15.5748 72.6714 15.4808C73.9792 15.3819 74.9013 15.6868 75.4377 16.3954C75.9729 17.0875 76.2753 18.1135 76.3449 19.4734L76.357 21.9449L84.0547 21.3626L84.0614 19.1394C84.0299 15.862 83.0743 13.3537 81.1946 11.6145C79.3149 9.87538 76.5292 9.14543 72.8376 9.42468C69.0136 9.71395 66.0686 11.1688 64.0025 13.7891C61.953 16.4082 60.9429 20.2223 60.9722 25.2314L61.0045 32.9208Z" fill="#696BA7"/>
<path d="M9.85094 90.2615L30.8583 88.6724L30.8553 82.0297L20.3019 82.828L25.872 73.2664C27.1847 71.2524 28.207 69.3604 28.9389 67.5901C29.686 65.8021 30.0497 63.6769 30.0299 61.2143C29.9931 58.0871 29.1798 55.8094 27.5901 54.3813C26.0156 52.9354 23.5067 52.3427 20.0634 52.6032C16.8519 52.8461 14.3198 53.9284 12.4673 55.8499C10.6301 57.7537 9.71131 60.3539 9.71094 63.6504L9.72642 66.4962L17.3 65.9233L17.2826 63.0526C17.2642 61.489 17.4808 60.3905 17.9324 59.7569C18.3839 59.1234 19.0401 58.7741 19.9009 58.709C20.7452 58.6451 21.3707 58.8808 21.7775 59.4161C22.183 59.9349 22.3989 60.9175 22.425 62.364C22.4296 63.7455 22.1944 65.0369 21.7192 66.2383C21.2605 67.4384 20.6713 68.6734 19.9516 69.9432L9.85002 84.9672L9.85094 90.2615Z" fill="#696BA7"/>
<path d="M38.2656 88.212L46.4599 87.5921L50.0879 64.2422C50.1481 63.9379 50.1971 63.4847 50.2348 62.8825C50.289 62.279 50.3297 61.8264 50.3568 61.5247L50.4313 61.5191C50.4704 61.8158 50.5125 62.2621 50.5576 62.8581C50.6192 63.4528 50.6779 63.8979 50.7335 64.1933L54.8281 86.9591L62.9232 86.3467L68.6979 49.4486L61.323 50.0065L58.6793 72.8325C58.6369 73.152 58.6006 73.6625 58.5704 74.3641C58.5402 75.0656 58.5128 75.5838 58.4882 75.9187L58.3889 75.9262C58.3638 75.5951 58.3167 75.0825 58.2476 74.3885C58.1784 73.6945 58.1237 73.1908 58.0833 72.8775L54.246 50.5418L46.9207 51.096L43.6333 73.9956C43.5781 74.3661 43.5335 74.8772 43.4996 75.5291C43.4657 76.181 43.4294 76.6915 43.3907 77.0607L43.3162 77.0664C43.2887 76.7022 43.2422 76.1979 43.1768 75.5535C43.1114 74.9092 43.0566 74.4055 43.0125 74.0426L39.8935 51.6275L32.0716 52.2192L38.2656 88.212Z" fill="#696BA7"/>
<path d="M71.3831 85.6069L79.1554 85.019L79.0803 73.4619L82.8795 73.1745C86.1241 72.9291 88.606 71.7341 90.3251 69.5895C92.043 67.4284 92.8925 64.2424 92.8736 60.0317C92.856 55.8375 92.0011 52.7888 90.3088 50.8856C88.6317 48.9646 86.1792 48.1262 82.9511 48.3704L71.2059 49.2589L71.3831 85.6069ZM79.0952 67.7169L78.9646 54.7655L81.6216 54.5645C82.9281 54.4491 83.8399 54.8379 84.357 55.7312C84.8894 56.6066 85.1655 58.2756 85.1853 60.7381C85.2023 63.384 84.953 65.151 84.4375 66.0391C83.9385 66.926 83.0517 67.4176 81.777 67.514L79.0952 67.7169Z" fill="#696BA7"/>
</g>
<defs>
<filter id="filter0_i_427_146" x="9.71094" y="9.36673" width="83.1631" height="80.8948" filterUnits="userSpaceOnUse" color-interpolation-filters="sRGB">
<feFlood flood-opacity="0" result="BackgroundImageFix"/>
<feBlend mode="normal" in="SourceGraphic" in2="BackgroundImageFix" result="shape"/>
<feColorMatrix in="SourceAlpha" type="matrix" values="0 0 0 0 0 0 0 0 0 0 0 0 0 0 0 0 0 0 127 0" result="hardAlpha"/>
<feOffset/>
<feGaussianBlur stdDeviation="2"/>
<feComposite in2="hardAlpha" operator="arithmetic" k2="-1" k3="1"/>
<feColorMatrix type="matrix" values="0 0 0 0 0.0798264 0 0 0 0 0.0935148 0 0 0 0 0.504167 0 0 0 0.2 0"/>
<feBlend mode="normal" in2="shape" result="effect1_innerShadow_427_146"/>
</filter>
<linearGradient id="paint0_linear_427_146" x1="99" y1="99" x2="1" y2="1" gradientUnits="userSpaceOnUse">
<stop stop-color="#696BA7"/>
<stop offset="1" stop-color="#696BA7" stop-opacity="0"/>
</linearGradient>
</defs>
</svg>
