<svg width="32" height="32" viewBox="0 0 32 32" fill="none" xmlns="http://www.w3.org/2000/svg"><rect width="32" height="32" rx="2" fill="#322EFF"/><mask id="prefix__a" maskUnits="userSpaceOnUse" x="0" y="0" width="32" height="32"><rect width="32" height="32" rx="2" fill="#322EFF"/></mask><g mask="url(#prefix__a)" fill="#fff"><path d="M24.469 4.213l-1.809.484c-.437-.728-1.185-1.035-2.101-.789-1.287.345-1.897 1.57-1.428 3.32.472 1.76 1.582 2.533 2.918 2.175 1.184-.317 1.717-1.17 1.462-2.22l-1.808.485-.36-1.34 3.523-.944.284 1.06c.594 2.216-.563 3.966-2.688 4.535-2.371.636-4.417-.587-5.13-3.25-.732-2.73.553-4.792 2.776-5.387 1.903-.51 3.684.268 4.36 1.87zM9.687 5.257l-1.977.53 5.161 7.639 2.294-.615.646-9.195-1.973.529-.325 6.942-.078.02-3.748-5.85zM5.797 8.894l1.706-.457C7.076 6.944 5.565 6.238 3.69 6.74c-1.845.495-2.924 1.877-2.506 3.403.328 1.243 1.394 1.72 2.908 1.68l.978-.016c.976-.024 1.556.103 1.712.669.161.617-.31 1.193-1.214 1.435-.925.248-1.706 0-1.989-.828l-1.722.461c.533 1.81 2.088 2.401 4.131 1.854 2.055-.55 3-1.857 2.591-3.4-.38-1.4-1.635-1.86-3.186-1.797l-.805.021c-.777.028-1.462-.08-1.611-.687-.146-.542.228-1.07 1.1-1.303.85-.228 1.476.018 1.719.662z"/><path fill-rule="evenodd" clip-rule="evenodd" d="M28.175 23.792l-2.457.658-3.113-11.619 4.584-1.228c2.638-.707 4.6.512 5.219 2.821.622 2.32-.506 4.331-3.178 5.047l-2.065.554 1.01 3.767zm-2.576-9.61l1.039 3.874 1.668-.447c1.407-.377 1.88-1.355 1.572-2.507-.31-1.157-1.204-1.745-2.622-1.365l-1.657.444z"/><path d="M12.899 27.885l2.394-.642.171-8.187.091-.025 4.248 7.004 2.394-.642.211-12.51-2.683.72.244 8.605-.102.027-4.283-7.522-2.298.615.041 8.642-.096.026-4.086-7.558-2.684.719L12.9 27.885zM1.935 30.823l7.222-1.935-.256-.954-5.747 1.54-.02-.073 2.02-3.99c1.358-2.65 1.672-3.767 1.327-5.055-.474-1.77-2.239-2.775-4.185-2.253-1.963.526-3.05 2.3-2.535 4.224l1.016-.272c-.37-1.379.306-2.624 1.742-3.009 1.35-.361 2.608.25 2.964 1.578.295 1.1-.07 2.074-1.104 4.138l-2.653 5.284.209.777z"/></g></svg>